<svg width="56" height="47" viewBox="0 0 56 47" fill="none" xmlns="http://www.w3.org/2000/svg">
<path fill-rule="evenodd" clip-rule="evenodd" d="M55 23.5C55 35.7694 43.083 46 28 46C12.917 46 1 35.7694 1 23.5C1 11.2306 12.917 1 28 1C43.083 1 55 11.2306 55 23.5ZM56 23.5C56 36.4787 43.464 47 28 47C12.536 47 0 36.4787 0 23.5C0 10.5213 12.536 0 28 0C43.464 0 56 10.5213 56 23.5ZM32.7043 24.1741C33.3616 24.4384 34.0621 24.6498 34.8059 24.8084L37.0891 25.2576C37.5388 25.3457 37.9885 25.4602 38.4383 25.6011C38.9053 25.7245 39.3204 25.9006 39.6836 26.1297C40.0642 26.3587 40.3669 26.6406 40.5917 26.9753C40.8339 27.31 40.9549 27.7241 40.9549 28.2174C40.9549 28.6754 40.8512 29.0894 40.6436 29.4594C40.436 29.8117 40.1506 30.1112 39.7874 30.3579C39.4242 30.6045 38.9918 30.7895 38.4901 30.9128C38.0058 31.0362 37.4869 31.0978 36.9334 31.0978C35.6362 31.0978 34.5811 30.7719 33.7681 30.12C32.9552 29.4682 32.4016 28.4816 32.1076 27.1603H28.8644C28.9682 28.2174 29.2277 29.1599 29.6428 29.9879C30.0579 30.8159 30.6028 31.5206 31.2774 32.102C31.9692 32.6658 32.7735 33.0974 33.6903 33.3969C34.6243 33.6964 35.6535 33.8462 36.7778 33.8462C37.7118 33.8462 38.6199 33.7228 39.502 33.4762C40.4014 33.2295 41.1971 32.8684 41.889 32.3927C42.5981 31.8994 43.1689 31.2916 43.6014 30.5693C44.0338 29.8294 44.25 28.9749 44.25 28.0059C44.25 27.037 44.0684 26.2266 43.7051 25.5747C43.3419 24.9229 42.8576 24.3767 42.2522 23.9363C41.6641 23.4959 40.9809 23.1523 40.2025 22.9057C39.4415 22.6414 38.6458 22.43 37.8156 22.2714L35.5064 21.8222C34.6935 21.6636 34.0189 21.3906 33.4827 21.003C32.9638 20.5978 32.7043 20.0252 32.7043 19.2853C32.7043 18.8096 32.8254 18.4132 33.0676 18.0961C33.3097 17.779 33.6038 17.5235 33.9497 17.3297C34.313 17.1183 34.7021 16.9686 35.1173 16.8805C35.5497 16.7924 35.9475 16.7483 36.3107 16.7483C36.7778 16.7483 37.2361 16.8012 37.6858 16.9069C38.1529 16.995 38.5853 17.1535 38.9831 17.3826C39.3809 17.594 39.7269 17.8935 40.0209 18.2811C40.315 18.651 40.5312 19.1267 40.6696 19.7081H43.8608C43.6706 18.7039 43.3506 17.8494 42.9008 17.1447C42.4684 16.4224 41.9322 15.8322 41.2922 15.3742C40.6523 14.8985 39.9258 14.555 39.1128 14.3435C38.2999 14.1145 37.4264 14 36.4924 14C35.6275 14 34.7713 14.1145 33.9238 14.3435C33.0762 14.5726 32.3152 14.9161 31.6406 15.3742C30.966 15.8146 30.4212 16.3696 30.006 17.039C29.5909 17.7085 29.3833 18.4925 29.3833 19.391C29.3833 20.2014 29.5217 20.9149 29.7985 21.5315C30.0925 22.1305 30.4817 22.6502 30.966 23.0906C31.4676 23.5311 32.0471 23.8922 32.7043 24.1741ZM20.3544 29.5387L15.5805 14.3435H12L18.5123 33.5026H22.0408L28.4753 14.3435H24.9986L20.3544 29.5387Z" fill="#EDEDED"/>
</svg>
